<svg width="140" height="52" viewBox="0 0 140 52" fill="none" xmlns="http://www.w3.org/2000/svg">
<path d="M120.156 46.8083C118.166 46.8083 116.36 46.5319 114.739 45.9791C113.117 45.3895 111.735 44.5604 110.593 43.4917C109.451 42.423 108.566 41.1333 107.94 39.6224C107.313 38.1115 107 36.4348 107 34.5923V18.1201C107 16.2776 107.313 14.6009 107.94 13.09C108.566 11.5791 109.451 10.2893 110.593 9.22068C111.735 8.15201 113.117 7.3413 114.739 6.78854C116.36 6.19893 118.166 5.90413 120.156 5.90413C122.109 5.90413 123.859 6.18051 125.407 6.73327C126.991 7.28602 128.355 8.07831 129.497 9.11013C130.64 10.1051 131.542 11.3396 132.206 12.8136C132.869 14.2508 133.238 15.8538 133.311 17.6226H126.402C126.328 15.8906 125.72 14.5456 124.578 13.5875C123.472 12.5925 121.998 12.095 120.156 12.095C118.239 12.095 116.71 12.6294 115.568 13.698C114.462 14.7667 113.909 16.2407 113.909 18.1201V34.5923C113.909 36.4717 114.444 37.9457 115.512 39.0144C116.618 40.083 118.166 40.6174 120.156 40.6174C121.998 40.6174 123.472 40.1199 124.578 39.1249C125.72 38.0931 126.328 36.7296 126.402 35.0345H133.311C133.127 38.6459 131.856 41.5202 129.497 43.6575C127.176 45.758 124.062 46.8083 120.156 46.8083Z" fill="#0194D3"/>
<g clip-path="url(#clip0_17_169)">
<path d="M90.1433 11.1425C90.5687 11.2621 90.9292 11.5458 91.1455 11.9312C91.3617 12.3165 91.4161 12.772 91.2966 13.1975L83.9133 39.5108C83.8542 39.7216 83.7542 39.9186 83.6189 40.0908C83.4837 40.2629 83.3158 40.4067 83.125 40.5139C82.9342 40.6212 82.7241 40.6898 82.5068 40.7158C82.2894 40.7419 82.0691 40.7249 81.8583 40.6658C81.6475 40.6067 81.4505 40.5067 81.2784 40.3714C81.1062 40.2362 80.9625 40.0683 80.8552 39.8775C80.748 39.6867 80.6793 39.4766 80.6533 39.2593C80.6272 39.0419 80.6442 38.8216 80.7033 38.6108L88.0866 12.2975C88.1457 12.0865 88.2458 11.8892 88.3811 11.717C88.5165 11.5447 88.6845 11.4008 88.8755 11.2936C89.0665 11.1863 89.2768 11.1177 89.4944 11.0918C89.7119 11.0659 89.9324 11.0831 90.1433 11.1425ZM78.0116 17.6541C78.3241 17.9667 78.4996 18.3905 78.4996 18.8325C78.4996 19.2744 78.3241 19.6983 78.0116 20.0108L72.12 25.9041L78.0116 31.7958C78.1665 31.9505 78.2894 32.1343 78.3732 32.3365C78.457 32.5387 78.5002 32.7555 78.5003 32.9744C78.5004 33.1933 78.4574 33.4101 78.3736 33.6124C78.2899 33.8146 78.1672 33.9984 78.0125 34.1533C77.8577 34.3081 77.674 34.431 77.4718 34.5149C77.2696 34.5987 77.0528 34.6419 76.8339 34.642C76.615 34.642 76.3982 34.599 76.1959 34.5153C75.9936 34.4316 75.8098 34.3089 75.655 34.1541L68.5833 27.0825C68.2709 26.7699 68.0953 26.3461 68.0953 25.9041C68.0953 25.4622 68.2709 25.0383 68.5833 24.7258L75.655 17.6541C75.9675 17.3417 76.3914 17.1662 76.8333 17.1662C77.2753 17.1662 77.6991 17.3417 78.0116 17.6541ZM93.9883 20.0108C93.8291 19.8571 93.7022 19.6731 93.6148 19.4698C93.5275 19.2665 93.4815 19.0478 93.4796 18.8265C93.4776 18.6052 93.5198 18.3857 93.6036 18.1809C93.6874 17.976 93.8112 17.79 93.9677 17.6335C94.1241 17.477 94.3102 17.3532 94.5151 17.2694C94.7199 17.1856 94.9393 17.1435 95.1606 17.1454C95.3819 17.1473 95.6006 17.1933 95.804 17.2806C96.0073 17.368 96.1912 17.4949 96.345 17.6541L103.417 24.7258C103.729 25.0383 103.905 25.4622 103.905 25.9041C103.905 26.3461 103.729 26.7699 103.417 27.0825L96.345 34.1541C96.0322 34.4666 95.6082 34.6421 95.1661 34.642C94.7239 34.6418 94.3 34.466 93.9875 34.1533C93.675 33.8406 93.4995 33.4165 93.4996 32.9744C93.4998 32.5323 93.6756 32.1083 93.9883 31.7958L99.88 25.9041L93.9883 20.0108Z" fill="#F1CB00"/>
</g>
<path d="M51.0451 6.45689C53.035 6.45689 54.8407 6.7517 56.4621 7.34131C58.1204 7.89407 59.5207 8.68635 60.6631 9.71817C61.8423 10.75 62.7452 12.0029 63.3716 13.4769C63.9981 14.9509 64.3113 16.5908 64.3113 18.3965C64.3113 21.0497 63.648 23.316 62.3214 25.1954C60.9948 27.0748 59.1707 28.4383 56.8491 29.2858L64.8641 46.2555H57.236L50.0501 30.3361H44.9095V46.2555H38V6.45689H51.0451ZM44.9095 24.7532H51.0451C52.9613 24.7532 54.4722 24.2004 55.5777 23.0949C56.7201 21.9894 57.2913 20.497 57.2913 18.6176C57.2913 16.7014 56.7201 15.1721 55.5777 14.0297C54.4353 12.8873 52.9245 12.3161 51.0451 12.3161H44.9095V24.7532Z" fill="#0194D3"/>
<path d="M16.7235 6.45689H26.0651L36.5123 46.2555H29.3817L27.0048 36.2506H15.4522L13.0753 46.2555H6L16.7235 6.45689ZM25.6782 30.7783L22.3064 16.5724C22.159 15.9091 22.0116 15.2458 21.8642 14.5824C21.7536 13.9191 21.6615 13.3295 21.5878 12.8136C21.5141 12.224 21.4404 11.6344 21.3667 11.0448H21.0903C21.0166 11.6344 20.9429 12.224 20.8692 12.8136C20.7955 13.3295 20.7034 13.9191 20.5928 14.5824C20.4823 15.2458 20.3349 15.9091 20.1506 16.5724L16.7788 30.7783H25.6782Z" fill="#0194D3"/>
<defs>
<clipPath id="clip0_17_169">
<rect width="40" height="40" fill="white" transform="translate(66 5.90413)"/>
</clipPath>
</defs>
</svg>
