<svg width="118" height="50" viewBox="0 0 118 50" fill="none" xmlns="http://www.w3.org/2000/svg">
<g clip-path="url(#clip0_218_137)">
<path d="M30.1792 6.54791C30.7109 6.69748 31.1615 7.05209 31.4318 7.5338C31.7022 8.0155 31.7702 8.58485 31.6208 9.11666L22.3917 42.0083C22.3178 42.2718 22.1928 42.5181 22.0237 42.7333C21.8546 42.9484 21.6448 43.1281 21.4063 43.2622C21.1678 43.3963 20.9052 43.482 20.6335 43.5146C20.3618 43.5472 20.0864 43.526 19.8229 43.4521C19.5595 43.3782 19.3131 43.2532 19.098 43.0841C18.8828 42.915 18.7031 42.7052 18.569 42.4667C18.435 42.2282 18.3492 41.9656 18.3166 41.6939C18.284 41.4222 18.3053 41.1468 18.3792 40.8833L27.6083 7.99166C27.6822 7.72795 27.8072 7.48138 27.9764 7.26605C28.1457 7.05073 28.3556 6.87088 28.5944 6.73678C28.8332 6.60269 29.0961 6.51699 29.368 6.48458C29.6399 6.45217 29.9156 6.47369 30.1792 6.54791ZM15.0146 14.6875C15.4051 15.0782 15.6246 15.608 15.6246 16.1604C15.6246 16.7128 15.4051 17.2426 15.0146 17.6333L7.65 25L15.0146 32.3646C15.2081 32.558 15.3617 32.7877 15.4665 33.0404C15.5713 33.2932 15.6253 33.5642 15.6254 33.8378C15.6255 34.1114 15.5717 34.3824 15.4671 34.6353C15.3625 34.8881 15.209 35.1179 15.0156 35.3115C14.8222 35.505 14.5925 35.6586 14.3398 35.7634C14.087 35.8682 13.816 35.9222 13.5424 35.9223C13.2688 35.9224 12.9978 35.8686 12.7449 35.764C12.4921 35.6593 12.2623 35.5059 12.0687 35.3125L3.22917 26.4729C2.8386 26.0822 2.61919 25.5524 2.61919 25C2.61919 24.4476 2.8386 23.9178 3.22917 23.5271L12.0687 14.6875C12.4594 14.2969 12.9892 14.0775 13.5417 14.0775C14.0941 14.0775 14.6239 14.2969 15.0146 14.6875ZM34.9854 17.6333C34.7864 17.4411 34.6277 17.2113 34.5185 16.9571C34.4094 16.7029 34.3519 16.4295 34.3495 16.1529C34.3471 15.8763 34.3998 15.602 34.5045 15.3459C34.6093 15.0899 34.764 14.8573 34.9596 14.6617C35.1552 14.4661 35.3878 14.3114 35.6438 14.2066C35.8999 14.1019 36.1742 14.0492 36.4508 14.0516C36.7275 14.054 37.0008 14.1114 37.255 14.2206C37.5092 14.3298 37.7391 14.4885 37.9312 14.6875L46.7708 23.5271C47.1614 23.9178 47.3808 24.4476 47.3808 25C47.3808 25.5524 47.1614 26.0822 46.7708 26.4729L37.9312 35.3125C37.5403 35.7031 37.0102 35.9225 36.4576 35.9223C35.9049 35.9221 35.375 35.7024 34.9844 35.3115C34.5937 34.9205 34.3744 34.3904 34.3746 33.8378C34.3748 33.2852 34.5945 32.7552 34.9854 32.3646L42.35 25L34.9854 17.6333Z" fill="#F1CB00"/>
</g>
<path d="M70.808 44.52C68.3813 44.52 66.2493 44.0693 64.412 43.168C62.6093 42.232 61.2053 40.932 60.2 39.268C59.2293 37.5693 58.744 35.576 58.744 33.288V16.752C58.744 14.4293 59.2293 12.436 60.2 10.772C61.2053 9.108 62.6093 7.82533 64.412 6.924C66.2493 5.988 68.3813 5.52 70.808 5.52C73.2693 5.52 75.384 5.988 77.152 6.924C78.9547 7.82533 80.3587 9.108 81.364 10.772C82.3693 12.436 82.872 14.4293 82.872 16.752H76.32C76.32 14.9493 75.8347 13.58 74.864 12.644C73.928 11.708 72.576 11.24 70.808 11.24C69.04 11.24 67.6707 11.708 66.7 12.644C65.7293 13.58 65.244 14.932 65.244 16.7V33.288C65.244 35.056 65.7293 36.4253 66.7 37.396C67.6707 38.332 69.04 38.8 70.808 38.8C72.576 38.8 73.928 38.332 74.864 37.396C75.8347 36.4253 76.32 35.056 76.32 33.288H82.872C82.872 35.5413 82.3693 37.5173 81.364 39.216C80.3587 40.9147 78.9547 42.232 77.152 43.168C75.384 44.0693 73.2693 44.52 70.808 44.52ZM94.3957 22.94V18.104L103.184 11.916C103.877 11.4653 104.414 10.876 104.796 10.148C105.212 9.38533 105.42 8.62266 105.42 7.86C105.42 6.716 105.09 5.81466 104.432 5.156C103.773 4.49733 102.889 4.168 101.78 4.168C100.705 4.168 99.821 4.49733 99.1277 5.156C98.469 5.81466 98.1397 6.716 98.1397 7.86H93.7717C93.8064 5.572 94.5517 3.752 96.0077 2.4C97.4637 1.01333 99.3877 0.319998 101.78 0.319998C104.241 0.319998 106.2 0.995998 107.656 2.348C109.112 3.7 109.84 5.52 109.84 7.808C109.84 9.09066 109.441 10.3733 108.644 11.656C107.846 12.9387 106.772 14.0307 105.42 14.932L99.3357 19.04H110.256V22.94H94.3957Z" fill="#0194D3"/>
<defs>
<clipPath id="clip0_218_137">
<rect width="50" height="50" fill="white"/>
</clipPath>
</defs>
</svg>
